<svg width="1288" height="991" viewBox="0 0 1288 991" fill="none" xmlns="http://www.w3.org/2000/svg">
<rect width="1288" height="748" rx="32" fill="#0C0C0C"/>
<rect width="1288" height="748" rx="32" fill="#0C0C0C"/>
<rect x="483" y="748" width="306" height="226" fill="#D7D7D7"/>
<rect x="483" y="748" width="306" height="226" fill="#D7D7D7"/>
<path d="M576 748C576 755.879 577.539 763.681 580.529 770.961C583.519 778.241 587.902 784.855 593.427 790.426C598.952 795.998 605.511 800.417 612.73 803.433C619.949 806.448 627.686 808 635.5 808C643.314 808 651.051 806.448 658.27 803.433C665.489 800.417 672.048 795.998 677.573 790.426C683.098 784.855 687.481 778.241 690.471 770.961C693.461 763.681 695 755.879 695 748H635.5L576 748Z" fill="white"/>
<path d="M576 748C576 755.879 577.539 763.681 580.529 770.961C583.519 778.241 587.902 784.855 593.427 790.426C598.952 795.998 605.511 800.417 612.73 803.433C619.949 806.448 627.686 808 635.5 808C643.314 808 651.051 806.448 658.27 803.433C665.489 800.417 672.048 795.998 677.573 790.426C683.098 784.855 687.481 778.241 690.471 770.961C693.461 763.681 695 755.879 695 748H635.5L576 748Z" fill="white"/>
<rect x="476" y="974" width="321" height="17" rx="3" fill="#B7B7B7"/>
</svg>
